PathFileType	4	(X/Y/Z)	OpenSim_Sub06_CSStiffKnee_Magnet.trc
DataRate	CameraRate	NumFrames	NumMarkers	Units	OrigDataRate	OrigDataStartFrame	OrigNumFrames
100	100	26	8	m	100	5374	7164
Frame#	Time	torso_imu_offset_imu	pelvis_imu_offset_imu	tibia_r_imu_offset_imu	femur_r_imu_offset_imu	tibia_l_imu_offset_imu	femur_l_imu_offset_imu	toes_r_imu_offset_imu	toes_l_imu_offset_imu
				X1	Y1	Z1	X2	Y2	Z2	X3	Y3	Z3	X4	Y4	Z4	X5	Y5	Z5	X6	Y6	Z6	X7	Y7	Z7	X8		Y8	Z8	

5374	53.73000000	-0.92369109	-0.18855884	0.13297298	-0.45975767	0.32350378	-0.76034603	-0.15577200	-0.72187206	-0.38263878	-0.78141185	-0.31875526	-0.08552312	-0.67824688	0.46933427	0.14040250	-0.42035868	0.23496433	0.50731993	-0.57866020	-0.67529732	-0.26628337	-0.73509137	-0.07552964	-0.43732480
5375	53.74000000	-0.91946868	-0.18906217	0.13427707	-0.46394711	0.32960933	-0.76001243	-0.17639118	-0.70449756	-0.40497764	-0.78092413	-0.31028019	-0.08529904	-0.67574578	0.47451442	0.13807123	-0.41979957	0.23740611	0.51159939	-0.57920333	-0.66496078	-0.28742254	-0.73141340	-0.07789771	-0.42445121
5376	53.75000000	-0.92497043	-0.19250397	0.13113466	-0.46316768	0.33404342	-0.77140425	-0.19431655	-0.69501180	-0.42324997	-0.78055218	-0.30796545	-0.08816973	-0.66907045	0.47849515	0.14215118	-0.41694099	0.25046589	0.51718183	-0.58565791	-0.64778775	-0.30305898	-0.73386116	-0.07209470	-0.42059913
5377	53.76000000	-0.92172137	-0.19393657	0.13986535	-0.45935224	0.33661093	-0.76950206	-0.21329975	-0.68024947	-0.43052834	-0.78566548	-0.30148882	-0.09572931	-0.66372162	0.48579292	0.14782977	-0.40863100	0.25680348	0.51657761	-0.59336898	-0.63138487	-0.32435327	-0.74229254	-0.07569999	-0.41914896
5378	53.77000000	-0.91922527	-0.20384337	0.14276403	-0.45528279	0.33833356	-0.77230713	-0.24092184	-0.66618907	-0.44049481	-0.78972204	-0.29431108	-0.10431913	-0.66879446	0.48455589	0.14793204	-0.40343012	0.25718949	0.51178672	-0.59375915	-0.61183344	-0.34334880	-0.74883536	-0.07293208	-0.42031599
5379	53.78000000	-0.91804566	-0.21002792	0.14453305	-0.45721714	0.34781113	-0.76483070	-0.27054173	-0.65640042	-0.43824928	-0.79055706	-0.28363665	-0.10198424	-0.66237576	0.49010910	0.14722807	-0.40894186	0.26883122	0.51454324	-0.59309183	-0.59276220	-0.36570396	-0.75304243	-0.06830466	-0.41306043
5380	53.79000000	-0.91560795	-0.20848800	0.14296209	-0.45116956	0.35071889	-0.76571708	-0.29598306	-0.64375747	-0.43962703	-0.79404855	-0.27679875	-0.10593311	-0.65384261	0.49998479	0.15055579	-0.40585275	0.27733365	0.50520912	-0.59137421	-0.57916090	-0.38799823	-0.76019948	-0.07091529	-0.41021740
5381	53.80000000	-0.91260495	-0.21161819	0.15193154	-0.44579376	0.34621015	-0.76928845	-0.31266837	-0.63574905	-0.44465229	-0.79812514	-0.27355185	-0.11079639	-0.65518897	0.50388189	0.14964580	-0.40252005	0.28404410	0.51152166	-0.58705531	-0.55925776	-0.40617305	-0.76030601	-0.07062887	-0.40234660
5382	53.81000000	-0.91721350	-0.21797604	0.15234698	-0.44869055	0.34468007	-0.76933897	-0.33444080	-0.62266145	-0.43846257	-0.79529087	-0.26724304	-0.11044367	-0.65066497	0.50692633	0.14989973	-0.40653780	0.28752017	0.51183970	-0.58680807	-0.53734701	-0.42697302	-0.76506823	-0.07036822	-0.40113437
5383	53.82000000	-0.91253973	-0.21897614	0.15401250	-0.44865885	0.34238058	-0.77088222	-0.36500096	-0.61630053	-0.43333677	-0.80203253	-0.25724085	-0.10348836	-0.64595462	0.50809929	0.15354790	-0.40306344	0.29141099	0.50838345	-0.58461229	-0.52148986	-0.44841363	-0.76657476	-0.06791235	-0.38973070
5384	53.83000000	-0.91351473	-0.22478510	0.15838676	-0.44285568	0.34477122	-0.77255231	-0.38809916	-0.60577031	-0.42725226	-0.79837763	-0.25293128	-0.10520418	-0.64561526	0.51581915	0.15493677	-0.39767940	0.29217457	0.50964610	-0.58552544	-0.49486725	-0.46202294	-0.76593746	-0.06564966	-0.38957806
5385	53.84000000	-0.91187578	-0.22778835	0.16039003	-0.44626051	0.34514708	-0.78043483	-0.41254774	-0.59820398	-0.41722556	-0.80381344	-0.25034537	-0.10550404	-0.64098829	0.52099836	0.15103751	-0.39284420	0.30277934	0.51779158	-0.58103279	-0.46948238	-0.47846655	-0.76794263	-0.06403007	-0.38270607
5386	53.85000000	-0.90768202	-0.23323702	0.16253862	-0.43656144	0.33446822	-0.77699170	-0.43415643	-0.58835261	-0.40990186	-0.80445244	-0.24696570	-0.09481988	-0.63494819	0.52764066	0.15350473	-0.39438033	0.30715640	0.51413036	-0.58091999	-0.44264352	-0.49767770	-0.77018422	-0.06423764	-0.38620634
5387	53.86000000	-0.90972206	-0.23586942	0.16661747	-0.43146262	0.33756302	-0.77268374	-0.46057270	-0.57203539	-0.40010146	-0.80585635	-0.24859763	-0.09391514	-0.62887458	0.53672156	0.15646461	-0.39176639	0.31640276	0.50942334	-0.57863576	-0.40976974	-0.51384457	-0.77078405	-0.06427997	-0.38134605
5388	53.87000000	-0.90801359	-0.23810590	0.17140856	-0.43354599	0.34224510	-0.78064337	-0.48545633	-0.55748140	-0.39421034	-0.80846252	-0.25283191	-0.09049475	-0.63198268	0.53893383	0.15792864	-0.38456349	0.32063352	0.51229799	-0.57789840	-0.37871851	-0.52425075	-0.77790136	-0.06441278	-0.36837665
5389	53.88000000	-0.90192525	-0.23839926	0.17247706	-0.43527555	0.33671802	-0.77900863	-0.50861040	-0.54632718	-0.38422618	-0.80638526	-0.25298508	-0.08579037	-0.62609959	0.54650173	0.15516638	-0.38590515	0.32562203	0.51087885	-0.57857567	-0.35129273	-0.52795527	-0.77545065	-0.06476253	-0.37619138
5390	53.89000000	-0.90236233	-0.24661693	0.17581219	-0.43540716	0.33862399	-0.78621669	-0.52824499	-0.52780190	-0.37566663	-0.80645296	-0.25256211	-0.08145340	-0.61741692	0.55199986	0.15694322	-0.38526746	0.33449013	0.50933334	-0.58781206	-0.32552202	-0.53346803	-0.77803786	-0.06796330	-0.37069326
5391	53.90000000	-0.90174009	-0.24703662	0.17416012	-0.42541288	0.33724489	-0.78304292	-0.54751019	-0.51078634	-0.37139429	-0.80287929	-0.26082843	-0.07596359	-0.61890624	0.55740156	0.15046740	-0.38320802	0.33856415	0.50816218	-0.59020310	-0.28870333	-0.54013566	-0.77660331	-0.06700367	-0.36945035
5392	53.91000000	-0.90651930	-0.24698671	0.17585843	-0.42926616	0.33913984	-0.78139275	-0.56893420	-0.49903783	-0.36147073	-0.80019683	-0.26646776	-0.06842133	-0.61390028	0.56189107	0.15121102	-0.38105313	0.34739648	0.50386592	-0.59746069	-0.25990116	-0.54345387	-0.77562337	-0.06252608	-0.36774716
5393	53.92000000	-0.89898387	-0.24749587	0.17315374	-0.42951821	0.33534727	-0.78435887	-0.58506100	-0.48526850	-0.35123486	-0.80226707	-0.26724338	-0.05764347	-0.60631936	0.56361839	0.15098075	-0.37479413	0.34747535	0.50591761	-0.59531966	-0.23516726	-0.54331086	-0.77862726	-0.06804611	-0.35384133
5394	53.93000000	-0.90154968	-0.25015349	0.17537342	-0.42583836	0.33292726	-0.78350294	-0.60180671	-0.46857561	-0.34846140	-0.80207700	-0.26996750	-0.04898684	-0.60507196	0.57307819	0.14911856	-0.37267813	0.35693504	0.50959534	-0.59601995	-0.21537422	-0.54451226	-0.77923154	-0.06827394	-0.35016190
5395	53.94000000	-0.89908099	-0.25082408	0.17807076	-0.43158343	0.33072041	-0.78610419	-0.61181723	-0.45512374	-0.35056037	-0.80138419	-0.26896700	-0.04573938	-0.59782750	0.58334969	0.14947368	-0.37758067	0.36488197	0.50833258	-0.59383307	-0.19931010	-0.55024020	-0.77781348	-0.06654125	-0.35519164
5396	53.95000000	-0.89936394	-0.24907378	0.17644644	-0.42733844	0.32258180	-0.78233628	-0.62454411	-0.44165224	-0.34909343	-0.80032499	-0.26866811	-0.03611097	-0.58539294	0.59459832	0.14751767	-0.37288188	0.36405487	0.50661690	-0.59246355	-0.18465201	-0.55561001	-0.78044497	-0.06615567	-0.35386956
5397	53.96000000	-0.90000658	-0.24915868	0.17772271	-0.42762926	0.31818971	-0.78812944	-0.62596847	-0.42911204	-0.34302558	-0.80298130	-0.26441792	-0.03036261	-0.58131143	0.59838708	0.13870233	-0.36931197	0.37263620	0.50639375	-0.58981519	-0.16669380	-0.55846389	-0.77824443	-0.06408722	-0.34247699
5398	53.97000000	-0.90174261	-0.24995880	0.17666178	-0.43075691	0.30875695	-0.79212155	-0.63159623	-0.42368242	-0.33469227	-0.80461138	-0.26519136	-0.02620856	-0.57797456	0.60608244	0.14648187	-0.36735548	0.38217258	0.50266968	-0.58698735	-0.15870851	-0.56119984	-0.77610823	-0.06497362	-0.34320302
5399	53.98000000	-0.90199475	-0.25114430	0.17757610	-0.43150598	0.30691708	-0.79105331	-0.63752203	-0.41798884	-0.34155341	-0.80350155	-0.25872208	-0.02494300	-0.56757665	0.61552856	0.13940179	-0.37477162	0.37859544	0.50030087	-0.58699332	-0.14640253	-0.55886134	-0.78048006	-0.06307462	-0.33721685
